PathFileType  4	(X/Y/Z) C:\Users\antoi\Documents\MyRepositories\mobilecap\ResultsAnalysis
DataRate	CameraRate	NumFrames	NumMarkers	Units	OrigDataRate	OrigDataStartFrame	OrigNumFrames
100.0	100.0	4	51	mm	100.0	76	151
Frame#	Time	r_knee			r_shank_antsup			r_ankle			r_calc			r_5meta			r_toe			L_knee			L_shank_antsup			L_ankle			L_calc			L_5meta			L_toe			r_sh2			r_sh3			r_sh4			L_sh2			L_sh3			r_thigh1			r_thigh2			r_thigh3			r_thigh4			r_thigh5			L_thigh1			L_thigh2			L_thigh3			L_thigh4			r.ASIS			r.PSIS			L.ASIS			L.PSIS			C7			R_Shoulder			L_Shoulder			R_Sternum			L_Sternum			R_humerus			R_elbow_med			R_elbow_lat			R_forearm			R_wrist_radius			R_wrist_ulna			L_humerus			L_elbow_med			L_elbow_lat			L_forearm			L_wrist_radius			L_wrist_ulna			R_HJC			L_HJC			R_HJC_reg			L_HJC_reg			
		X1	Y1	Z1	X2	Y2	Z2	X3	Y3	Z3	X4	Y4	Z4	X5	Y5	Z5	X6	Y6	Z6	X7	Y7	Z7	X8	Y8	Z8	X9	Y9	Z9	X10	Y10	Z10	X11	Y11	Z11	X12	Y12	Z12	X13	Y13	Z13	X14	Y14	Z14	X15	Y15	Z15	X16	Y16	Z16	X17	Y17	Z17	X18	Y18	Z18	X19	Y19	Z19	X20	Y20	Z20	X21	Y21	Z21	X22	Y22	Z22	X23	Y23	Z23	X24	Y24	Z24	X25	Y25	Z25	X26	Y26	Z26	X27	Y27	Z27	X28	Y28	Z28	X29	Y29	Z29	X30	Y30	Z30	X31	Y31	Z31	X32	Y32	Z32	X33	Y33	Z33	X34	Y34	Z34	X35	Y35	Z35	X36	Y36	Z36	X37	Y37	Z37	X38	Y38	Z38	X39	Y39	Z39	X40	Y40	Z40	X41	Y41	Z41	X42	Y42	Z42	X43	Y43	Z43	X44	Y44	Z44	X45	Y45	Z45	X46	Y46	Z46	X47	Y47	Z47	X48	Y48	Z48	X49	Y49	Z49	X50	Y50	Z50	X51	Y51	Z51	

76	0.75000000	749.02692	567.71868	-22.48958	667.64545	434.44319	-38.15633	354.39926	251.17651	-66.93023	310.74544	300.99802	-125.99097	360.66448	98.97973	-66.95870	408.60215	88.10621	-115.73752	891.53289	596.47547	-294.93643	949.04734	400.47972	-250.42959	866.79821	102.54314	-227.35172	810.53159	71.60678	-159.07683	1010.68399	36.42316	-259.89937	1050.47081	70.18675	-202.24622	582.07225	363.88142	-51.80434	622.88588	480.77329	4.02830	534.81099	411.79263	-1.90261	884.29092	402.28068	-308.79179	875.11973	288.28809	-283.37449	785.18588	856.73524	9.02413	803.59620	747.60298	10.37304	745.33985	714.85006	10.18902	675.83621	841.25206	-19.61237	694.18882	725.11256	-15.89577	870.04544	892.54378	-341.46795	901.97956	762.49225	-319.42449	762.00700	869.17146	-342.56554	798.87290	735.61436	-334.03027	823.16907	1150.78350	-37.04322	633.68846	1173.15363	-121.65954	810.17939	1150.10034	-316.10929	628.74161	1174.92738	-214.78043	677.81347	1666.64042	-179.63983	746.77088	1621.49495	-5.60146	740.42997	1633.22939	-357.46029	820.09970	1580.92464	-151.73164	822.19399	1582.53072	-208.88318	708.53314	1353.82084	66.57824	610.66192	1248.77356	27.95761	620.54659	1270.41641	99.04924	713.01057	1077.08174	128.96739	749.69700	987.11789	126.26423	718.68630	984.57643	150.49093	740.82131	1335.76419	-410.10828	651.25690	1262.88323	-358.05570	669.47000	1257.63640	-433.04665	748.94623	1067.99801	-460.82808	776.81238	991.29537	-453.42927	751.16317	993.41579	-476.99939	749.04069	1051.96372	-75.51858	734.74076	1055.27008	-272.43601	757.00319	1060.49553	-75.47694	747.22870	1064.00577	-259.56304	
77	0.76000000	772.96228	569.65029	-21.40333	690.79780	437.28968	-36.81837	374.39109	259.45362	-63.63390	331.74381	310.53117	-122.56394	376.56856	106.99334	-63.79624	424.40352	94.52419	-112.34135	896.32869	596.51788	-294.92417	951.79776	399.85671	-250.60675	867.02160	102.70953	-227.23365	810.62054	71.81643	-159.11309	1010.76436	36.28833	-259.93529	1050.62417	69.57605	-202.06253	603.92235	368.04011	-50.11261	647.03525	484.03712	6.00358	557.48839	416.30236	0.41892	886.78871	402.28011	-308.68686	876.68311	288.36257	-283.20223	802.13306	858.71830	9.42380	823.11573	750.19249	10.80597	765.27943	716.37739	11.11393	693.14542	840.99636	-18.75584	714.04217	725.14017	-15.09151	879.09216	893.20073	-340.82630	909.38348	762.71491	-319.06476	770.89824	871.04367	-342.92473	806.13838	737.30125	-334.30467	833.09339	1152.63507	-36.55933	644.05248	1174.82572	-122.58973	821.65936	1151.79130	-315.78239	639.60869	1176.98448	-215.69508	688.69958	1668.58086	-181.36857	756.74951	1623.69332	-6.78145	752.04718	1634.38145	-358.76345	830.81485	1582.81688	-152.51704	833.20158	1584.28398	-209.70007	717.57049	1356.09693	65.76274	619.25510	1251.48675	27.37290	629.46240	1273.10910	98.32927	720.56991	1079.15438	128.12605	756.79868	988.85380	125.28662	725.84180	986.58599	149.66611	752.21990	1336.90458	-411.36176	662.51768	1264.10383	-359.66858	681.12727	1258.73895	-434.45956	761.60371	1069.31343	-461.28881	789.79375	992.79268	-453.46995	764.32323	994.74340	-477.28776	759.04228	1053.79039	-75.59447	745.97785	1057.06190	-272.60634	767.40054	1061.63833	-75.75447	758.61423	1065.91249	-259.93349	
78	0.77000000	796.57185	572.13720	-20.34979	713.92025	440.55494	-35.53338	394.92266	267.00308	-60.60496	352.73310	318.43714	-119.65550	395.05664	114.45686	-60.17777	442.85887	101.01301	-108.52366	900.90388	596.60311	-294.94196	954.33653	399.33987	-250.67742	867.22063	102.85687	-227.17408	810.68949	72.07853	-159.21848	1010.83242	36.14221	-259.99546	1050.79849	69.02830	-201.95057	625.88776	372.33454	-48.49096	670.97517	487.61904	7.79532	580.29261	420.95565	2.59043	889.35247	402.27864	-308.75624	878.34479	288.43278	-283.20830	819.02870	861.18634	9.76425	842.43791	753.28520	11.12904	785.17002	718.30056	11.90026	710.35019	841.19771	-17.91295	733.75002	725.70106	-14.25219	887.89734	893.90277	-340.01591	916.59030	763.02270	-318.59632	779.65194	872.91512	-343.34509	813.33481	739.00440	-334.61165	843.06940	1154.53880	-36.34770	654.36117	1176.60563	-123.38385	832.87072	1153.57766	-315.63736	650.32805	1179.07378	-216.47883	699.45040	1670.57434	-183.03554	766.43542	1625.92782	-7.82563	763.56450	1635.54518	-359.99271	841.36516	1584.75269	-153.17766	844.10055	1586.09066	-210.38484	726.39181	1358.37860	65.02172	627.75679	1254.08748	26.83855	638.23377	1275.71439	97.65608	728.16822	1081.20864	127.30758	763.97770	990.61808	124.33269	733.14580	988.60717	148.90424	763.52923	1338.06548	-412.65883	673.65684	1265.28838	-361.35057	692.70685	1259.85731	-435.92245	774.21609	1070.65998	-461.75577	802.76688	994.36276	-453.52592	777.46321	996.09449	-477.57979	769.08420	1055.67970	-75.76829	756.96196	1058.93616	-272.84765	777.73455	1063.00330	-76.14603	769.75595	1067.88945	-260.36091	
79	0.78000000	819.80522	575.14718	-19.34038	736.93072	444.20537	-34.25874	416.00354	273.71500	-57.83661	373.73705	324.65008	-117.24844	416.02381	121.19714	-56.09703	463.86634	107.28649	-104.27480	905.25188	596.69450	-295.02035	956.68901	398.90790	-250.66553	867.38832	102.98982	-227.17327	810.74161	72.38659	-159.37942	1010.87411	35.99334	-260.08646	1050.97010	68.54641	-201.91070	647.96307	376.70152	-46.88832	694.57957	491.54438	9.35090	603.11693	425.70599	4.56724	891.96141	402.26462	-308.97984	880.07934	288.49223	-283.37184	835.79276	864.14040	10.03509	861.53891	756.86208	11.32880	804.96423	720.60566	12.57974	727.40302	841.80737	-17.07087	753.29090	726.76699	-13.36120	896.45998	894.56959	-339.19413	923.55301	763.31993	-318.12711	788.24275	874.73889	-343.80432	820.34706	740.63211	-334.97372	853.08912	1156.54043	-36.45052	664.63710	1178.48456	-124.01492	843.83016	1155.41581	-315.68069	660.91474	1181.17309	-217.12666	710.07371	1672.60345	-184.62652	775.90239	1628.21638	-8.75969	774.97151	1636.75306	-361.13962	851.76092	1586.71662	-153.73601	854.90023	1587.93986	-210.95215	735.04806	1360.70192	64.34129	636.19591	1256.64232	26.28299	646.86204	1278.28539	96.96748	735.84097	1083.28602	126.47742	771.19084	992.45652	123.38658	740.54626	990.67727	148.18367	774.80901	1339.27882	-413.91225	684.74464	1266.46223	-363.05364	704.23678	1261.02509	-437.39201	786.78144	1072.07143	-462.22325	815.70632	996.02832	-453.60668	790.57282	997.50029	-477.87981	779.19600	1057.65412	-76.01414	767.70711	1060.85837	-273.13612	788.03588	1064.60498	-76.67194	780.67286	1069.92322	-260.84219	
